<svg xmlns="http://www.w3.org/2000/svg" width="888" height="486.11804" viewBox="0 0 888 486.11804" xmlns:xlink="http://www.w3.org/1999/xlink"><path d="M445.70161,45.45101S463.15129,.63462,438.15916,.00751c-24.99213-.62711-44.73255,38.20994-44.73255,38.20994,0,0-62.72795,114.34249,23.21377,108.17634,85.94172-6.16615,44.87376-51.81067,44.87376-51.81067,0,0-19.60165-24.09928-15.81253-49.13211Z" fill="#2f2e41"/><path d="M1,424.04187H888s0-2,0-2H1c-.55228,0-1,.44771-1,1H0c0,.55229,.44771,1,1,1Z" fill="#3f3d56"/><path d="M406,441.04187c5,24,33.5-5.5,33.5-5.5l34-4s21.5,.5,35.5,11.5c14,11,23.5-3.5,23.5-3.5,15.77282,5.25761,35.09692,5.23627,51.83266,3.55251,24.11594-2.42627,43.44605-21.04041,46.76046-45.0504,18.69676-135.44145-84.09312-202.00211-84.09312-202.00211l-30-81s9.5-23.5,12.5-44.5c3-21-19-41-46-61-11.8125-8.75-25.34766-8.12109-36.83716-4.64502-12.88891,3.89946-24.13215,11.9183-32.43969,22.51616-6.8825,8.77995-18.68734,21.21468-31.66316,23.36885-4.48999,.73999-8.91998,2.52002-13.06,5.76001-4.28003,3.34998-6.16998,8.94-6.22998,15.89001-.32001,30.35999,24.75,66.90997,46.72998,72.60999,27,7,12.5,73.5,12.5,73.5-44,62-13,131-13,131l-8,56s-.5,11.5,4.5,35.5Z" fill="#3f3d56"/><path d="M553,312.04187l-11,137s15,38-36,36c-51-2-21-80-21-80l16-102" fill="#3f3d56"/><path d="M509.79492,486.11804c-1.24707,0-2.52344-.02539-3.83398-.07715-11.29004-.44238-19.60352-4.60059-24.71094-12.3584-14.60254-22.18164,1.63867-65.90625,2.77832-68.89941l15.9834-101.89648c.08594-.5459,.59375-.91309,1.14355-.83301,.54492,.08594,.91797,.59766,.83301,1.14355l-16,102c-.01172,.06934-.0293,.1377-.05469,.2041-.1748,.45215-17.25195,45.55566-3.01172,67.18359,4.73242,7.18652,12.50977,11.04199,23.11719,11.45801,16.65234,.64941,27.85254-2.90332,33.29785-10.56836,7.12402-10.02832,1.78711-23.92676,1.73242-24.06641-.05566-.1416-.07812-.29492-.06641-.44629l11-137c.04395-.5498,.5166-.95117,1.07715-.91699,.55078,.04492,.96094,.52637,.91699,1.07715l-10.98242,136.77539c.72656,1.96094,5.28223,15.4043-2.03906,25.72363-5.41699,7.63574-15.89844,11.49707-31.18066,11.49707Z" fill="#2f2e41"/><path d="M462,340.04187s3,127-60,124c-63-3-6-43-6-43l5.5-15.5" fill="#3f3d56"/><path d="M404.16211,465.09363c-.73145,0-1.4668-.01758-2.20996-.05273-17.98828-.85645-28.15186-4.88672-30.20801-11.97852-3.7041-12.7793,20.43945-30.52148,23.41895-32.65332l5.39453-15.20117c.18457-.52148,.75586-.79297,1.27637-.6084s.79297,.75586,.6084,1.27637l-5.5,15.5c-.06934,.19629-.19824,.36523-.36816,.48438-.26367,.18555-26.37744,18.68457-22.90869,30.64551,1.79248,6.18066,11.34131,9.72559,28.38232,10.53711,11.34863,.5459,21.29688-3.27051,29.55078-11.3291,30.95215-30.21582,29.4209-110.83789,29.40137-111.64844-.0127-.55176,.42383-1.00977,.97656-1.02344,.52246,.00098,1.00977,.4248,1.02344,.97656,.0791,3.3457,1.57227,82.29785-30.00293,113.125-8.12793,7.93555-17.82031,11.9502-28.83496,11.9502Z" fill="#2f2e41"/><path d="M363.27002,72.43189c7.17999,.85999,18.41998,.81995,27.72998-5.39001,9.96997-6.65002-.38-12.85004-8.44-16.26001-4.48999,.73999-8.91998,2.52002-13.06,5.76001-4.28003,3.34998-6.16998,8.94-6.22998,15.89001Z" fill="#2f2e41"/><path d="M479.29839,54.45101s-17.44968-44.81639,7.54245-45.4435c24.99213-.62711,44.73255,38.20994,44.73255,38.20994,0,0,62.72795,114.34249-23.21377,108.17634-85.94172-6.16615-44.87376-51.81067-44.87376-51.81067,0,0,19.60165-24.09928,15.81253-49.13211Z" fill="#2f2e41"/><path d="M575.03856,389.3577c11.06788,4.92365,22.63169,9.94801,34.73579,9.46739s24.84154-8.27556,26.7277-20.24145c.97366-6.17696-.95746-12.80395,1.40758-18.59269,3.18212-7.78866,13.44674-10.79233,21.42577-8.12322s13.84074,9.55188,18.04359,16.84059c7.86327,13.63672,11.01409,31.53462,2.58305,44.8278-7.30876,11.52369-21.17081,16.73106-34.06516,21.19747-17.17537,5.94929-36.35112,11.85399-52.99393,4.54617-16.73808-7.34965-25.85564-28.58434-19.65752-45.78212" fill="#3f3d56"/><path d="M538.11417,173.42848s22,11,11,23c-11,12-79,46-104,41-25-5-31-20-31-24s1.88583-52.38661,9.88583-50.38661,58.11417,47.38661,114.11417,10.38661Z" fill="#6c63ff"/></svg>